<mxfile host="app.diagrams.net" modified="2023-02-16T09:39:53.005Z" agent="5.0 (Windows NT 10.0; Win64; x64) AppleWebKit/537.36 (KHTML, like Gecko) Chrome/110.0.0.0 Safari/537.36" etag="d0_kS5wG3B_Rf-Udx2tp" version="20.8.20" type="github">
  <diagram id="C5RBs43oDa-KdzZeNtuy" name="Page-1">
    <mxGraphModel dx="1434" dy="800" grid="1" gridSize="10" guides="1" tooltips="1" connect="1" arrows="1" fold="1" page="1" pageScale="1" pageWidth="827" pageHeight="1169" math="0" shadow="0">
      <root>
        <mxCell id="WIyWlLk6GJQsqaUBKTNV-0" />
        <mxCell id="WIyWlLk6GJQsqaUBKTNV-1" parent="WIyWlLk6GJQsqaUBKTNV-0" />
        <mxCell id="gVxV7Q0qTXhrTJg3wu8e-6" style="edgeStyle=orthogonalEdgeStyle;rounded=0;orthogonalLoop=1;jettySize=auto;html=1;entryX=0.5;entryY=0;entryDx=0;entryDy=0;" edge="1" parent="WIyWlLk6GJQsqaUBKTNV-1" source="gVxV7Q0qTXhrTJg3wu8e-0" target="gVxV7Q0qTXhrTJg3wu8e-1">
          <mxGeometry relative="1" as="geometry" />
        </mxCell>
        <mxCell id="gVxV7Q0qTXhrTJg3wu8e-0" value="Start" style="ellipse;whiteSpace=wrap;html=1;" vertex="1" parent="WIyWlLk6GJQsqaUBKTNV-1">
          <mxGeometry x="340" y="50" width="120" height="80" as="geometry" />
        </mxCell>
        <mxCell id="gVxV7Q0qTXhrTJg3wu8e-7" style="edgeStyle=orthogonalEdgeStyle;rounded=0;orthogonalLoop=1;jettySize=auto;html=1;entryX=0.5;entryY=0;entryDx=0;entryDy=0;" edge="1" parent="WIyWlLk6GJQsqaUBKTNV-1" source="gVxV7Q0qTXhrTJg3wu8e-1" target="gVxV7Q0qTXhrTJg3wu8e-2">
          <mxGeometry relative="1" as="geometry" />
        </mxCell>
        <mxCell id="gVxV7Q0qTXhrTJg3wu8e-1" value="a = [1,3,2,4,7]&lt;br&gt;i = a.dlugosc - 1&lt;br&gt;suma = 0" style="rounded=0;whiteSpace=wrap;html=1;" vertex="1" parent="WIyWlLk6GJQsqaUBKTNV-1">
          <mxGeometry x="340" y="180" width="120" height="60" as="geometry" />
        </mxCell>
        <mxCell id="gVxV7Q0qTXhrTJg3wu8e-8" style="edgeStyle=orthogonalEdgeStyle;rounded=0;orthogonalLoop=1;jettySize=auto;html=1;entryX=0;entryY=0.5;entryDx=0;entryDy=0;" edge="1" parent="WIyWlLk6GJQsqaUBKTNV-1" source="gVxV7Q0qTXhrTJg3wu8e-2" target="gVxV7Q0qTXhrTJg3wu8e-3">
          <mxGeometry relative="1" as="geometry" />
        </mxCell>
        <mxCell id="gVxV7Q0qTXhrTJg3wu8e-14" style="edgeStyle=orthogonalEdgeStyle;rounded=0;orthogonalLoop=1;jettySize=auto;html=1;entryX=0.5;entryY=0;entryDx=0;entryDy=0;" edge="1" parent="WIyWlLk6GJQsqaUBKTNV-1" source="gVxV7Q0qTXhrTJg3wu8e-2" target="gVxV7Q0qTXhrTJg3wu8e-13">
          <mxGeometry relative="1" as="geometry" />
        </mxCell>
        <mxCell id="gVxV7Q0qTXhrTJg3wu8e-2" value="i&amp;nbsp; &amp;lt; 0" style="rhombus;whiteSpace=wrap;html=1;" vertex="1" parent="WIyWlLk6GJQsqaUBKTNV-1">
          <mxGeometry x="340" y="314" width="120" height="120" as="geometry" />
        </mxCell>
        <mxCell id="gVxV7Q0qTXhrTJg3wu8e-9" style="edgeStyle=orthogonalEdgeStyle;rounded=0;orthogonalLoop=1;jettySize=auto;html=1;entryX=0.5;entryY=1;entryDx=0;entryDy=0;" edge="1" parent="WIyWlLk6GJQsqaUBKTNV-1" source="gVxV7Q0qTXhrTJg3wu8e-3" target="gVxV7Q0qTXhrTJg3wu8e-4">
          <mxGeometry relative="1" as="geometry" />
        </mxCell>
        <mxCell id="gVxV7Q0qTXhrTJg3wu8e-3" value="suma += a[i]" style="rounded=0;whiteSpace=wrap;html=1;" vertex="1" parent="WIyWlLk6GJQsqaUBKTNV-1">
          <mxGeometry x="520" y="344" width="120" height="60" as="geometry" />
        </mxCell>
        <mxCell id="gVxV7Q0qTXhrTJg3wu8e-10" style="edgeStyle=orthogonalEdgeStyle;rounded=0;orthogonalLoop=1;jettySize=auto;html=1;" edge="1" parent="WIyWlLk6GJQsqaUBKTNV-1" source="gVxV7Q0qTXhrTJg3wu8e-4">
          <mxGeometry relative="1" as="geometry">
            <mxPoint x="400" y="270" as="targetPoint" />
          </mxGeometry>
        </mxCell>
        <mxCell id="gVxV7Q0qTXhrTJg3wu8e-4" value="i--" style="rounded=0;whiteSpace=wrap;html=1;" vertex="1" parent="WIyWlLk6GJQsqaUBKTNV-1">
          <mxGeometry x="545" y="250" width="70" height="40" as="geometry" />
        </mxCell>
        <mxCell id="gVxV7Q0qTXhrTJg3wu8e-11" value="NIE" style="text;html=1;strokeColor=none;fillColor=none;align=center;verticalAlign=middle;whiteSpace=wrap;rounded=0;" vertex="1" parent="WIyWlLk6GJQsqaUBKTNV-1">
          <mxGeometry x="450" y="344" width="60" height="30" as="geometry" />
        </mxCell>
        <mxCell id="gVxV7Q0qTXhrTJg3wu8e-12" value="TAK" style="text;html=1;strokeColor=none;fillColor=none;align=center;verticalAlign=middle;whiteSpace=wrap;rounded=0;" vertex="1" parent="WIyWlLk6GJQsqaUBKTNV-1">
          <mxGeometry x="354" y="434" width="60" height="30" as="geometry" />
        </mxCell>
        <mxCell id="gVxV7Q0qTXhrTJg3wu8e-16" style="edgeStyle=orthogonalEdgeStyle;rounded=0;orthogonalLoop=1;jettySize=auto;html=1;entryX=0.5;entryY=0;entryDx=0;entryDy=0;" edge="1" parent="WIyWlLk6GJQsqaUBKTNV-1" source="gVxV7Q0qTXhrTJg3wu8e-13" target="gVxV7Q0qTXhrTJg3wu8e-15">
          <mxGeometry relative="1" as="geometry" />
        </mxCell>
        <mxCell id="gVxV7Q0qTXhrTJg3wu8e-13" value="wyÅ›wietl suma" style="rounded=0;whiteSpace=wrap;html=1;" vertex="1" parent="WIyWlLk6GJQsqaUBKTNV-1">
          <mxGeometry x="340" y="484" width="120" height="60" as="geometry" />
        </mxCell>
        <mxCell id="gVxV7Q0qTXhrTJg3wu8e-15" value="Koniec" style="ellipse;whiteSpace=wrap;html=1;" vertex="1" parent="WIyWlLk6GJQsqaUBKTNV-1">
          <mxGeometry x="340" y="584" width="120" height="80" as="geometry" />
        </mxCell>
      </root>
    </mxGraphModel>
  </diagram>
</mxfile>
